<?xml version="1.0" standalone="no"?>
<!DOCTYPE svg PUBLIC "-//W3C//DTD SVG 20010904//EN"
 "http://www.w3.org/TR/2001/REC-SVG-20010904/DTD/svg10.dtd">
<svg version="1.0" xmlns="http://www.w3.org/2000/svg"
 width="375.000000pt" height="453.000000pt" viewBox="0 0 375.000000 453.000000"
 preserveAspectRatio="xMidYMid meet">
<metadata>
Created by potrace 1.15, written by Peter Selinger 2001-2017
</metadata>
<g transform="translate(0.000000,453.000000) scale(0.100000,-0.100000)"
fill="#000000" stroke="none">
<path d="M1347 4494 c-3 -3 -32 -10 -64 -14 -60 -8 -133 -26 -168 -40 -48 -19
-115 -56 -115 -63 0 -5 -5 -5 -10 -2 -6 3 -13 0 -16 -9 -3 -8 -12 -12 -20 -9
-10 4 -12 0 -7 -13 4 -10 2 -15 -4 -11 -11 7 -78 -26 -108 -53 -18 -17 -24
-20 -41 -20 -4 0 -1 -6 5 -13 6 -8 8 -17 4 -20 -17 -17 16 -5 35 13 13 13 23
16 27 9 4 -6 -1 -17 -11 -25 -14 -11 -15 -17 -6 -20 6 -3 12 -10 12 -15 0 -5
-10 -3 -23 6 -13 8 -27 12 -30 8 -6 -6 -11 11 -8 30 0 4 -3 7 -9 7 -5 0 -10
-5 -10 -11 0 -5 -4 -7 -10 -4 -5 3 -10 1 -10 -4 0 -6 5 -11 12 -11 6 0 8 -3 5
-6 -4 -4 -13 -2 -20 5 -11 8 -18 6 -32 -9 -10 -11 -14 -20 -10 -20 4 0 -7 -10
-26 -23 -19 -12 -36 -32 -38 -42 -2 -11 -8 -23 -15 -27 -7 -5 -4 -8 7 -8 11 0
17 -6 15 -12 -3 -7 -14 -13 -25 -13 -25 0 -55 -24 -47 -37 4 -6 10 -6 16 0 6
6 17 8 24 5 10 -4 12 0 7 13 -6 17 -5 17 10 5 9 -7 18 -11 18 -7 1 3 3 11 4
16 1 6 4 18 5 28 1 12 4 10 10 -8 4 -14 8 -20 9 -13 1 7 10 17 20 22 17 9 18
8 13 -12 -3 -12 -12 -33 -21 -46 -14 -22 -15 -22 -22 -5 -7 18 -7 18 -14 1 -4
-10 -3 -23 4 -30 6 -6 11 -16 11 -21 0 -6 -4 -5 -9 3 -16 25 -32 2 -25 -36 6
-33 5 -34 -13 -23 -20 13 -21 54 -2 66 14 8 11 24 -5 24 -14 0 -36 -68 -36
-110 0 -12 -4 -18 -10 -15 -5 3 -10 18 -10 33 0 22 -2 24 -11 12 -9 -12 -10
-11 -6 7 3 16 1 20 -10 16 -8 -3 -12 -11 -9 -19 3 -7 0 -14 -7 -17 -8 -2 -6
-11 6 -30 14 -22 14 -25 2 -21 -11 5 -15 -1 -15 -22 0 -16 -11 -50 -24 -76
-15 -30 -20 -50 -14 -54 5 -4 8 -19 6 -35 -3 -15 -1 -26 4 -23 4 3 9 15 9 27
1 16 3 17 6 5 3 -11 10 -15 21 -11 16 6 16 5 1 -13 -9 -10 -19 -32 -23 -47 -4
-15 -11 -25 -16 -22 -6 3 -10 -1 -10 -9 0 -9 3 -15 8 -15 19 3 33 -2 27 -11
-3 -5 -1 -10 4 -10 20 0 11 -39 -11 -54 -18 -13 -19 -16 -5 -16 20 0 23 -18 3
-26 -15 -6 -16 -21 -3 -41 4 -6 3 -14 -3 -18 -5 -3 -10 -1 -10 6 0 10 -3 10
-12 1 -10 -10 -10 -14 0 -21 9 -5 11 -17 6 -35 -7 -30 17 -66 45 -66 12 0 13
-2 3 -8 -9 -6 -3 -18 20 -44 27 -30 35 -34 45 -23 6 7 9 16 6 19 -4 3 0 6 7 6
9 0 7 5 -5 14 -20 14 -28 57 -13 67 7 4 6 14 -1 27 -6 11 -11 29 -10 39 0 16
1 16 9 -2 7 -16 9 -14 9 15 1 20 8 46 17 58 11 16 12 22 3 22 -9 0 -10 3 -2
11 12 12 5 61 -8 53 -5 -3 -9 6 -9 20 0 19 5 26 19 26 26 0 29 6 32 70 1 30 6
65 10 78 5 14 5 22 -2 22 -6 0 -7 5 -4 10 4 6 11 7 17 4 7 -5 9 -1 5 9 -4 11
-1 17 9 17 8 0 12 5 9 10 -4 6 -11 8 -16 5 -12 -8 -11 6 1 25 9 13 11 13 21 0
9 -13 10 -12 5 3 -3 9 -1 17 5 17 6 0 9 7 5 15 -3 8 -1 15 4 15 6 0 10 -6 10
-14 0 -9 13 -2 35 18 19 19 35 39 35 45 0 26 83 81 122 81 10 0 18 5 18 10 0
6 8 10 19 10 26 0 82 25 82 36 -1 5 30 9 69 10 38 0 67 -3 64 -8 -10 -16 9 -8
22 10 10 12 13 13 9 2 -5 -13 9 -16 98 -15 60 0 110 5 118 11 23 18 87 25 92
10 7 -19 69 -29 79 -14 6 10 8 10 8 1 0 -7 7 -10 15 -6 19 7 105 -16 105 -28
0 -5 7 -9 15 -9 8 0 15 -6 15 -14 0 -20 61 -40 72 -24 5 9 8 8 8 -5 0 -10 5
-15 10 -12 6 3 10 0 10 -8 0 -17 52 -67 70 -67 7 0 10 -3 7 -7 -4 -3 0 -14 8
-23 8 -9 17 -27 19 -41 2 -13 5 -26 7 -29 1 -3 3 -32 5 -65 5 -94 7 -105 20
-105 7 0 16 -10 19 -22 4 -13 19 -39 34 -58 29 -38 28 -37 30 -81 0 -16 5 -28
10 -24 5 3 13 0 17 -6 4 -8 3 -9 -4 -5 -7 4 -12 1 -12 -6 0 -11 -2 -10 -9 0
-7 11 -10 10 -15 -3 -10 -27 -7 -38 9 -31 12 4 15 -3 14 -32 -1 -29 -2 -32 -7
-14 -4 13 -11 23 -16 22 -12 -2 -36 56 -36 85 0 23 -24 40 -41 29 -5 -3 -9 -1
-9 4 0 5 -16 22 -35 37 -27 20 -39 24 -49 16 -7 -6 -32 -12 -55 -14 -22 -1
-41 -7 -41 -12 0 -10 -121 -11 -210 -2 -36 4 -65 -20 -65 -53 0 -8 -7 -15 -15
-15 -8 0 -18 -7 -21 -15 -7 -17 20 -90 34 -90 5 0 6 -11 3 -25 -10 -40 25 -94
81 -123 15 -8 75 -15 218 -24 11 0 40 0 65 1 42 2 44 3 26 16 -19 15 -19 15 5
16 67 4 79 5 85 12 4 4 -7 7 -24 7 -25 0 -30 3 -25 16 4 12 2 15 -8 12 -8 -3
-13 -10 -12 -16 2 -7 -8 -7 -30 -1 -17 5 -47 9 -66 9 -26 0 -32 3 -24 11 7 7
25 12 41 13 17 1 28 4 26 7 -2 3 11 6 28 7 20 0 37 -6 45 -17 7 -11 31 -21 58
-24 47 -7 106 -32 104 -45 -4 -27 2 -41 18 -35 9 4 14 2 10 -3 -3 -6 -9 -53
-12 -105 -6 -98 -37 -184 -75 -212 -9 -7 -19 -20 -23 -29 -8 -22 -21 -23 -37
-3 -7 8 -18 15 -26 15 -7 0 -20 10 -28 22 -9 12 -18 19 -21 16 -3 -3 -31 20
-61 52 -30 32 -70 63 -87 70 -18 6 -52 20 -76 31 -24 11 -46 18 -48 15 -3 -3
11 -19 30 -35 39 -35 56 -79 35 -92 -7 -5 -27 -9 -45 -9 -17 0 -44 -5 -60 -11
-57 -22 -75 -23 -238 -16 -90 4 -124 2 -135 -8 -18 -15 -57 -3 -67 21 -3 9 4
40 17 70 12 30 20 57 17 60 -10 10 -47 -7 -47 -21 0 -7 -11 -20 -25 -29 -13
-9 -40 -32 -59 -51 -20 -19 -43 -35 -53 -35 -13 0 -15 -2 -5 -9 17 -10 -1 -26
-38 -33 -48 -10 -55 -13 -62 -30 -4 -10 -14 -18 -21 -18 -10 0 -14 -17 -16
-62 -1 -34 -5 -67 -9 -72 -3 -6 -7 -18 -9 -26 -1 -12 1 -12 11 2 10 14 14 6
24 -50 7 -37 20 -78 28 -90 17 -26 14 -35 -8 -27 -8 3 -20 22 -27 43 -7 20
-21 55 -31 77 -10 22 -20 47 -23 55 -2 8 -6 19 -8 25 -6 14 -43 52 -50 49 -10
-5 -2 -146 10 -153 14 -9 31 -66 31 -104 0 -15 7 -30 15 -33 9 -4 15 -19 15
-36 0 -17 -4 -27 -10 -23 -12 8 -3 -19 23 -62 10 -18 23 -30 28 -27 5 3 9 -4
9 -16 0 -11 7 -23 15 -26 8 -4 15 -11 15 -18 1 -18 50 -73 50 -56 0 8 10 0 21
-17 12 -18 25 -30 30 -27 5 3 9 -4 9 -15 0 -12 5 -21 10 -21 15 0 12 27 -7 63
-40 75 -58 186 -33 202 5 3 10 1 10 -4 0 -6 7 -11 16 -11 11 0 14 6 9 20 -4
11 -3 19 2 18 17 -6 39 26 35 49 -3 18 0 23 17 23 18 0 20 4 14 33 -5 26 -3
30 8 20 7 -7 24 -13 39 -13 14 0 50 -13 82 -30 48 -25 57 -27 62 -14 8 22 -1
33 -22 27 -20 -5 -72 47 -72 73 0 8 4 13 9 10 5 -3 11 3 14 13 5 22 62 34 90
19 10 -5 36 -7 57 -3 24 4 45 2 59 -7 17 -11 25 -10 52 6 17 10 41 16 55 13
14 -2 41 2 62 9 54 19 99 17 122 -6 28 -28 25 -47 -14 -86 -28 -28 -40 -33
-60 -28 -17 4 -26 2 -26 -5 0 -26 -135 -45 -225 -31 -50 8 -98 2 -90 -10 5 -8
57 -13 155 -14 69 0 165 17 185 34 7 6 17 10 21 9 26 -4 74 2 70 10 -3 5 5 12
19 15 15 4 32 21 45 45 11 22 24 42 30 46 14 9 13 5 -10 -43 -11 -22 -20 -49
-19 -59 0 -14 2 -13 9 5 10 24 25 29 35 11 4 -6 13 -8 21 -5 18 7 17 -4 -1
-28 -8 -11 -15 -28 -15 -39 0 -10 -4 -15 -10 -12 -5 3 -10 -1 -10 -9 0 -10 6
-13 15 -10 8 4 15 1 15 -5 0 -6 -4 -11 -10 -11 -5 0 -10 -4 -10 -10 0 -19 29
-10 36 12 7 25 17 13 28 -37 7 -28 6 -29 -7 -11 -13 18 -16 18 -29 5 -13 -13
-13 -16 -1 -28 22 -20 -1 -39 -23 -20 -16 13 -16 12 -6 -8 17 -31 15 -35 -8
-21 -16 10 -19 19 -15 38 4 14 11 28 17 31 6 4 8 15 4 25 -6 16 -11 14 -42
-18 -18 -20 -34 -43 -34 -50 0 -10 -3 -9 -9 1 -8 12 -11 9 -17 -12 -6 -28 5
-53 13 -30 3 9 12 9 30 2 16 -6 30 -6 37 0 7 6 18 5 29 -4 13 -9 15 -15 6 -20
-6 -4 -15 -1 -20 6 -4 7 -11 10 -14 7 -10 -10 4 -28 21 -28 19 0 18 -16 -1
-24 -8 -3 -15 -1 -15 4 0 5 -8 6 -17 3 -15 -6 -15 -8 -1 -17 14 -8 13 -12 -8
-28 -13 -11 -29 -16 -36 -12 -10 6 -11 4 0 -7 6 -7 12 -20 12 -28 0 -10 -3
-12 -8 -6 -5 7 -17 7 -40 0 -18 -6 -29 -14 -26 -18 4 -4 -6 -7 -22 -6 -19 0
-24 3 -14 7 29 13 20 29 -13 25 -18 -3 -39 -5 -47 -4 -73 7 -158 6 -172 -1
-11 -5 -18 -5 -18 1 0 8 -36 26 -50 24 -3 0 -19 -3 -36 -6 -28 -5 -31 -4 -27
13 6 23 8 24 34 9 16 -8 25 -7 40 7 13 12 28 15 54 11 19 -3 37 -1 40 4 4 5
17 9 31 9 30 0 32 16 2 23 -24 7 -19 19 9 22 32 3 73 17 73 25 0 4 -7 11 -16
14 -8 3 -12 10 -9 16 4 6 10 8 15 5 5 -3 11 -1 14 4 3 5 22 12 41 15 19 4 35
11 35 16 0 5 10 10 23 12 16 2 22 10 22 28 0 17 -5 24 -15 21 -47 -12 -70 -12
-75 1 -5 11 -22 12 -98 6 -50 -5 -103 -5 -117 -1 -14 4 -29 7 -35 8 -5 0 -14
3 -20 7 -5 3 -24 9 -41 12 -28 6 -32 4 -44 -24 -7 -16 -19 -30 -27 -30 -12 0
-12 -2 0 -14 15 -15 12 -76 -4 -76 -11 0 -23 46 -15 58 3 6 -2 8 -12 5 -10 -2
-38 3 -62 11 -24 8 -45 14 -46 13 -1 -1 -4 -15 -5 -32 -2 -18 1 -29 8 -28 6 1
13 -11 15 -27 2 -16 0 -28 -6 -27 -16 3 -26 -74 -10 -80 7 -3 17 -2 21 0 5 3
9 -15 9 -40 1 -31 6 -49 18 -55 17 -10 22 -48 6 -48 -5 0 -10 4 -10 9 0 14
-33 23 -40 11 -4 -6 -13 -4 -26 7 -11 10 -40 34 -64 53 -25 19 -46 38 -48 42
-2 4 -8 8 -13 8 -6 0 -7 -5 -3 -12 5 -8 2 -9 -12 -3 -10 4 -31 9 -46 10 -28 3
-28 3 -10 -20 24 -30 19 -107 -6 -98 -16 6 -16 5 -1 -13 28 -34 29 -41 7 -70
-13 -15 -17 -25 -11 -21 8 5 11 -2 11 -23 -1 -16 -5 -30 -11 -30 -5 0 -4 -6 2
-14 7 -8 8 -17 3 -20 -6 -3 -26 12 -46 34 -45 50 -54 51 -22 3 14 -20 24 -38
23 -39 -5 -5 -56 9 -53 15 2 3 -13 5 -34 3 -39 -4 -90 20 -90 42 0 6 11 28 25
48 24 35 24 37 5 43 -21 7 -80 -30 -80 -50 0 -7 -19 -30 -43 -52 -52 -50 -86
-91 -80 -97 2 -2 -9 -7 -26 -11 -17 -4 -31 -12 -31 -19 0 -13 -35 -46 -50 -46
-6 0 -10 -4 -10 -10 0 -5 -7 -10 -15 -10 -7 0 -18 -6 -22 -13 -4 -8 -27 -26
-50 -42 -24 -15 -43 -34 -43 -41 0 -8 -6 -14 -13 -14 -15 0 -88 -68 -165 -153
l-52 -59 0 -664 0 -664 1864 0 1865 0 -9 28 c-4 15 -19 57 -33 95 -15 37 -24
67 -20 67 3 0 0 7 -7 15 -7 8 -9 15 -5 15 4 0 2 6 -4 13 -6 8 -8 17 -4 20 3 4
1 7 -5 7 -7 0 -11 3 -10 8 0 4 -3 16 -7 27 -27 65 -43 114 -49 146 -4 21 -14
48 -24 60 -10 13 -24 42 -31 64 -7 22 -24 54 -37 72 -13 17 -24 37 -24 43 0
11 -19 55 -68 160 -91 194 -253 434 -364 540 -56 53 -227 143 -273 143 -8 0
-15 3 -15 7 0 4 -11 5 -25 2 -15 -2 -25 0 -25 7 0 7 -4 10 -9 6 -5 -3 -38 5
-73 19 -72 27 -156 56 -178 61 -8 2 -76 27 -150 55 -74 29 -147 57 -162 62
-16 6 -28 15 -28 20 0 5 -4 6 -10 3 -5 -3 -10 -1 -10 5 0 6 -5 8 -12 4 -6 -4
-8 -3 -4 4 3 6 2 14 -4 17 -14 9 -12 97 6 245 7 63 13 133 12 156 -1 76 13
144 37 172 47 57 85 160 85 234 0 57 15 85 48 93 26 5 77 45 58 45 -4 0 0 7 8
16 9 8 14 19 11 24 -3 5 -1 11 5 15 6 4 8 11 5 16 -4 5 -1 9 5 9 7 0 10 7 7
15 -4 8 -2 17 3 20 10 6 15 148 11 345 -2 66 -24 156 -45 179 -10 11 -15 41
-15 101 -2 131 -4 150 -13 150 -5 0 -8 6 -6 13 1 6 -4 29 -11 49 -7 21 -10 41
-7 46 3 5 -4 26 -14 48 -11 21 -20 55 -22 74 -2 30 -50 144 -68 160 -3 3 -14
22 -25 44 -11 21 -37 53 -59 72 -37 32 -66 75 -66 97 0 19 -50 56 -104 76 -29
11 -73 31 -99 45 -25 14 -52 26 -61 26 -8 0 -27 7 -43 15 -70 36 -125 55 -208
75 -133 30 -132 30 -138 24z m952 -1314 c20 -43 21 -44 21 -15 1 26 3 27 10
10 5 -11 8 -58 8 -105 -1 -66 -2 -76 -8 -45 -5 29 -8 33 -9 14 0 -15 -10 -46
-20 -69 -15 -33 -20 -38 -24 -24 -3 13 -5 11 -6 -8 0 -16 3 -28 7 -28 13 0 39
32 46 55 3 11 4 -14 2 -55 -4 -89 -37 -180 -67 -180 -10 0 -21 -5 -24 -10 -7
-12 -26 4 -43 37 -9 15 -9 24 -1 28 6 4 8 13 5 20 -6 16 17 38 29 27 5 -4 2 4
-7 18 -14 23 -14 27 5 52 16 21 18 30 8 41 -9 12 -7 16 13 21 14 3 30 20 40
41 19 40 18 105 -1 105 -7 0 -12 3 -12 8 3 20 -3 30 -23 35 -18 5 -19 8 -9 21
7 9 10 23 7 32 -3 8 -3 34 1 57 l7 42 12 -40 c7 -22 21 -60 33 -85z m-539
-344 c0 -11 14 -31 31 -46 16 -15 31 -37 32 -49 1 -11 7 -23 14 -25 7 -3 13
-12 13 -20 0 -7 7 -17 16 -20 24 -9 8 -24 -21 -18 -18 3 -25 0 -25 -12 0 -19
-12 -20 -58 -4 -29 11 -35 10 -43 -4 -7 -13 -22 -16 -82 -13 -39 1 -76 0 -82
-3 -5 -4 -28 -7 -51 -8 -32 -1 -42 3 -50 20 -5 11 -19 22 -31 24 -44 6 -22 17
35 18 37 1 68 7 85 19 25 16 53 21 125 24 22 1 22 2 6 29 -11 18 -11 21 -1 10
8 -10 18 -18 23 -18 19 1 54 39 54 59 0 23 -25 29 -33 9 -2 -7 -8 -10 -12 -6
-4 4 -2 23 5 42 10 32 13 34 31 23 10 -6 19 -20 19 -31z"/>
<path d="M1034 3511 c-17 -4 -35 -11 -41 -14 -5 -3 -40 -7 -77 -8 -71 -2 -86
-12 -86 -58 0 -40 30 -57 88 -51 40 4 51 3 48 -7 -7 -17 4 -16 18 1 10 13 16
13 46 -1 l35 -15 -25 -10 c-14 -5 -42 -7 -63 -5 -27 4 -40 1 -44 -9 -3 -8 -9
-11 -14 -8 -9 5 -77 -61 -122 -120 -16 -20 -32 -34 -37 -31 -5 3 -12 0 -16 -6
-5 -9 2 -10 27 -6 l34 7 -25 -20 c-14 -11 -20 -20 -13 -20 25 0 45 14 54 37 6
17 14 23 25 19 8 -3 17 1 20 9 7 18 22 19 57 3 39 -19 38 -41 -3 -55 -19 -7
-44 -13 -55 -14 -15 0 -11 -5 14 -16 27 -11 32 -17 20 -24 -30 -20 156 3 220
27 35 13 73 22 83 18 10 -3 18 0 18 6 0 7 8 10 19 7 24 -6 50 21 85 87 29 55
32 67 14 63 -8 -1 -13 10 -14 30 -1 22 3 30 13 26 29 -11 10 8 -27 27 -22 11
-40 26 -40 33 -1 32 -39 91 -61 94 -61 9 -147 11 -175 4z"/>
<path d="M556 3036 c-29 -27 -36 -40 -36 -70 0 -50 14 -72 53 -85 29 -10 33
-16 34 -47 1 -44 8 -51 29 -30 12 12 14 25 9 49 -4 18 -7 61 -6 96 1 53 -3 68
-23 91 l-23 28 -37 -32z"/>
</g>
</svg>
